<svg xmlns="http://www.w3.org/2000/svg" viewBox="0 0 180 180" width="180" height="180">
  <defs>
    <radialGradient id="bgApple" cx="50%" cy="50%" r="50%">
      <stop offset="0%" stop-color="#F4D4A7"/>
      <stop offset="100%" stop-color="#E8C49A"/>
    </radialGradient>
  </defs>
  
  <!-- Background with rounded corners for iOS -->
  <rect x="0" y="0" width="180" height="180" rx="40" ry="40" fill="url(#bgApple)"/>
  
  <!-- Character body -->
  <ellipse cx="90" cy="120" rx="45" ry="35" fill="#8B4513" stroke="#654321" stroke-width="2.5"/>
  
  <!-- Head -->
  <circle cx="90" cy="75" r="35" fill="#D2691E" stroke="#8B4513" stroke-width="2.5"/>
  
  <!-- Ears -->
  <ellipse cx="68" cy="52" rx="10" ry="18" fill="#D2691E" stroke="#8B4513" stroke-width="2" transform="rotate(-20 68 52)"/>
  <ellipse cx="112" cy="52" rx="10" ry="18" fill="#D2691E" stroke="#8B4513" stroke-width="2" transform="rotate(20 112 52)"/>
  
  <!-- Inner ears -->
  <ellipse cx="68" cy="55" rx="5" ry="10" fill="#FFB6C1" transform="rotate(-20 68 55)"/>
  <ellipse cx="112" cy="55" rx="5" ry="10" fill="#FFB6C1" transform="rotate(20 112 55)"/>
  
  <!-- Eyes -->
  <circle cx="79" cy="70" r="10" fill="#000"/>
  <circle cx="101" cy="70" r="10" fill="#000"/>
  <circle cx="82" cy="67" r="3.5" fill="#FFF"/>
  <circle cx="104" cy="67" r="3.5" fill="#FFF"/>
  
  <!-- Nose -->
  <ellipse cx="90" cy="80" rx="3.5" ry="2.5" fill="#8B4513"/>
  
  <!-- Mouth -->
  <path d="M 82 88 Q 90 95 98 88" stroke="#8B4513" stroke-width="3.5" fill="none"/>
  
  <!-- Cheeks -->
  <circle cx="62" cy="77" r="5.5" fill="#FFB6C1" opacity="0.6"/>
  <circle cx="118" cy="77" r="5.5" fill="#FFB6C1" opacity="0.6"/>
  
  <!-- Hat -->
  <ellipse cx="90" cy="40" rx="27" ry="10" fill="#87CEEB" stroke="#4682B4" stroke-width="2"/>
  <rect x="76" y="32" width="28" height="14" fill="#87CEEB" stroke="#4682B4" stroke-width="2"/>
  <circle cx="90" cy="27" r="7" fill="#87CEEB" stroke="#4682B4" stroke-width="2"/>
  
  <!-- Hoodie -->
  <path d="M 54 100 Q 63 90 90 94 Q 117 90 126 100 L 126 135 Q 90 145 54 135 Z" fill="#87CEEB" stroke="#4682B4" stroke-width="2.5"/>
  
  <!-- Hood -->
  <path d="M 63 94 Q 90 82 117 94 Q 108 86 90 86 Q 72 86 63 94" fill="#87CEEB" stroke="#4682B4" stroke-width="2"/>
  
  <!-- Hoodie pocket -->
  <rect x="81" y="112" width="18" height="14" rx="3" fill="#6BB6FF" stroke="#4682B4" stroke-width="2"/>
  
  <!-- Small character on hoodie -->
  <circle cx="90" cy="119" r="3.5" fill="#D2691E"/>
  <circle cx="88.5" cy="117.5" r="0.8" fill="#000"/>
  <circle cx="91.5" cy="117.5" r="0.8" fill="#000"/>
</svg>