<svg xmlns="http://www.w3.org/2000/svg" viewBox="0 0 32 32" width="32" height="32">
  <defs>
    <radialGradient id="bg32" cx="50%" cy="50%" r="50%">
      <stop offset="0%" stop-color="#F4D4A7"/>
      <stop offset="100%" stop-color="#E8C49A"/>
    </radialGradient>
  </defs>
  
  <!-- Background -->
  <circle cx="16" cy="16" r="16" fill="url(#bg32)"/>
  
  <!-- Character body -->
  <ellipse cx="16" cy="21" rx="8" ry="6" fill="#8B4513" stroke="#654321" stroke-width="0.5"/>
  
  <!-- Head -->
  <circle cx="16" cy="13" r="6.5" fill="#D2691E" stroke="#8B4513" stroke-width="0.5"/>
  
  <!-- Ears -->
  <ellipse cx="12" cy="9" rx="2" ry="3" fill="#D2691E" stroke="#8B4513" stroke-width="0.4" transform="rotate(-20 12 9)"/>
  <ellipse cx="20" cy="9" rx="2" ry="3" fill="#D2691E" stroke="#8B4513" stroke-width="0.4" transform="rotate(20 20 9)"/>
  
  <!-- Inner ears -->
  <ellipse cx="12" cy="10" rx="1" ry="2" fill="#FFB6C1" transform="rotate(-20 12 10)"/>
  <ellipse cx="20" cy="10" rx="1" ry="2" fill="#FFB6C1" transform="rotate(20 20 10)"/>
  
  <!-- Eyes -->
  <circle cx="14" cy="12" r="2" fill="#000"/>
  <circle cx="18" cy="12" r="2" fill="#000"/>
  <circle cx="14.5" cy="11.5" r="0.6" fill="#FFF"/>
  <circle cx="18.5" cy="11.5" r="0.6" fill="#FFF"/>
  
  <!-- Nose -->
  <ellipse cx="16" cy="14" rx="0.6" ry="0.4" fill="#8B4513"/>
  
  <!-- Mouth -->
  <path d="M 14.5 15.5 Q 16 16.5 17.5 15.5" stroke="#8B4513" stroke-width="0.6" fill="none"/>
  
  <!-- Cheeks -->
  <circle cx="11" cy="13.5" r="1" fill="#FFB6C1" opacity="0.6"/>
  <circle cx="21" cy="13.5" r="1" fill="#FFB6C1" opacity="0.6"/>
  
  <!-- Hat -->
  <ellipse cx="16" cy="7" rx="5" ry="2" fill="#87CEEB" stroke="#4682B4" stroke-width="0.3"/>
  <rect x="13.5" y="5.5" width="5" height="2.5" fill="#87CEEB" stroke="#4682B4" stroke-width="0.3"/>
  <circle cx="16" cy="4.5" r="1.3" fill="#87CEEB" stroke="#4682B4" stroke-width="0.3"/>
  
  <!-- Hoodie -->
  <path d="M 10 18 Q 11 16.5 16 17 Q 21 16.5 22 18 L 22 24 Q 16 26 10 24 Z" fill="#87CEEB" stroke="#4682B4" stroke-width="0.5"/>
  
  <!-- Hood -->
  <path d="M 11 17 Q 16 14.5 21 17 Q 19.5 15.5 16 15.5 Q 12.5 15.5 11 17" fill="#87CEEB" stroke="#4682B4" stroke-width="0.3"/>
  
  <!-- Hoodie pocket -->
  <rect x="14.5" y="20" width="3" height="2.5" rx="0.6" fill="#6BB6FF" stroke="#4682B4" stroke-width="0.3"/>
  
  <!-- Small character on hoodie -->
  <circle cx="16" cy="21" r="0.6" fill="#D2691E"/>
  <circle cx="15.7" cy="20.8" r="0.15" fill="#000"/>
  <circle cx="16.3" cy="20.8" r="0.15" fill="#000"/>
</svg>