<svg xmlns="http://www.w3.org/2000/svg" viewBox="0 0 100 100">
  <defs>
    <radialGradient id="bg" cx="50%" cy="50%" r="50%">
      <stop offset="0%" stop-color="#F4D4A7"/>
      <stop offset="100%" stop-color="#E8C49A"/>
    </radialGradient>
  </defs>
  
  <!-- Background -->
  <circle cx="50" cy="50" r="50" fill="url(#bg)"/>
  
  <!-- Character body -->
  <ellipse cx="50" cy="65" rx="25" ry="20" fill="#8B4513" stroke="#654321" stroke-width="1.5"/>
  
  <!-- Head -->
  <circle cx="50" cy="40" r="20" fill="#D2691E" stroke="#8B4513" stroke-width="1.5"/>
  
  <!-- Ears -->
  <ellipse cx="38" cy="28" rx="6" ry="10" fill="#D2691E" stroke="#8B4513" stroke-width="1.5" transform="rotate(-20 38 28)"/>
  <ellipse cx="62" cy="28" rx="6" ry="10" fill="#D2691E" stroke="#8B4513" stroke-width="1.5" transform="rotate(20 62 28)"/>
  
  <!-- Inner ears -->
  <ellipse cx="38" cy="30" rx="3" ry="6" fill="#FFB6C1" transform="rotate(-20 38 30)"/>
  <ellipse cx="62" cy="30" rx="3" ry="6" fill="#FFB6C1" transform="rotate(20 62 30)"/>
  
  <!-- Eyes -->
  <circle cx="44" cy="38" r="6" fill="#000"/>
  <circle cx="56" cy="38" r="6" fill="#000"/>
  <circle cx="46" cy="36" r="2" fill="#FFF"/>
  <circle cx="58" cy="36" r="2" fill="#FFF"/>
  
  <!-- Nose -->
  <ellipse cx="50" cy="44" rx="2" ry="1.5" fill="#8B4513"/>
  
  <!-- Mouth -->
  <path d="M 46 48 Q 50 52 54 48" stroke="#8B4513" stroke-width="2" fill="none"/>
  
  <!-- Cheeks -->
  <circle cx="35" cy="42" r="3" fill="#FFB6C1" opacity="0.6"/>
  <circle cx="65" cy="42" r="3" fill="#FFB6C1" opacity="0.6"/>
  
  <!-- Hat -->
  <ellipse cx="50" cy="22" rx="15" ry="6" fill="#87CEEB" stroke="#4682B4" stroke-width="1"/>
  <rect x="42" y="18" width="16" height="8" fill="#87CEEB" stroke="#4682B4" stroke-width="1"/>
  <circle cx="50" cy="15" r="4" fill="#87CEEB" stroke="#4682B4" stroke-width="1"/>
  
  <!-- Hoodie -->
  <path d="M 30 55 Q 35 50 50 52 Q 65 50 70 55 L 70 75 Q 50 80 30 75 Z" fill="#87CEEB" stroke="#4682B4" stroke-width="1.5"/>
  
  <!-- Hood -->
  <path d="M 35 52 Q 50 45 65 52 Q 60 48 50 48 Q 40 48 35 52" fill="#87CEEB" stroke="#4682B4" stroke-width="1"/>
  
  <!-- Hoodie pocket -->
  <rect x="45" y="62" width="10" height="8" rx="2" fill="#6BB6FF" stroke="#4682B4" stroke-width="1"/>
  
  <!-- Small character on hoodie -->
  <circle cx="50" cy="66" r="2" fill="#D2691E"/>
  <circle cx="49" cy="65" r="0.5" fill="#000"/>
  <circle cx="51" cy="65" r="0.5" fill="#000"/>
</svg>