<svg xmlns="http://www.w3.org/2000/svg" viewBox="0 0 16 16" width="16" height="16">
  <defs>
    <radialGradient id="bg16" cx="50%" cy="50%" r="50%">
      <stop offset="0%" stop-color="#F4D4A7"/>
      <stop offset="100%" stop-color="#E8C49A"/>
    </radialGradient>
  </defs>
  
  <!-- Background -->
  <circle cx="8" cy="8" r="8" fill="url(#bg16)"/>
  
  <!-- Character body -->
  <ellipse cx="8" cy="11" rx="4" ry="3" fill="#8B4513" stroke="#654321" stroke-width="0.3"/>
  
  <!-- Head -->
  <circle cx="8" cy="7" r="3.5" fill="#D2691E" stroke="#8B4513" stroke-width="0.3"/>
  
  <!-- Ears -->
  <ellipse cx="6" cy="5" rx="1" ry="1.8" fill="#D2691E" stroke="#8B4513" stroke-width="0.2" transform="rotate(-20 6 5)"/>
  <ellipse cx="10" cy="5" rx="1" ry="1.8" fill="#D2691E" stroke="#8B4513" stroke-width="0.2" transform="rotate(20 10 5)"/>
  
  <!-- Eyes -->
  <circle cx="7" cy="6.5" r="1" fill="#000"/>
  <circle cx="9" cy="6.5" r="1" fill="#000"/>
  <circle cx="7.3" cy="6.2" r="0.3" fill="#FFF"/>
  <circle cx="9.3" cy="6.2" r="0.3" fill="#FFF"/>
  
  <!-- Nose -->
  <ellipse cx="8" cy="7.5" rx="0.3" ry="0.2" fill="#8B4513"/>
  
  <!-- Mouth -->
  <path d="M 7.2 8.2 Q 8 8.8 8.8 8.2" stroke="#8B4513" stroke-width="0.3" fill="none"/>
  
  <!-- Hat -->
  <ellipse cx="8" cy="4" rx="2.5" ry="1" fill="#87CEEB" stroke="#4682B4" stroke-width="0.2"/>
  <rect x="6.8" y="3.2" width="2.4" height="1.4" fill="#87CEEB" stroke="#4682B4" stroke-width="0.2"/>
  
  <!-- Hoodie -->
  <path d="M 5 9.5 Q 6 9 8 9.2 Q 10 9 11 9.5 L 11 12.5 Q 8 13.5 5 12.5 Z" fill="#87CEEB" stroke="#4682B4" stroke-width="0.2"/>
</svg>